<?xml version="1.0" standalone="no"?>
<!DOCTYPE svg PUBLIC "-//W3C//DTD SVG 20010904//EN"
 "http://www.w3.org/TR/2001/REC-SVG-20010904/DTD/svg10.dtd">
<svg version="1.0" xmlns="http://www.w3.org/2000/svg"
 width="992.000000pt" height="992.000000pt" viewBox="0 0 992.000000 992.000000"
 preserveAspectRatio="xMidYMid meet">
<metadata>
Created by potrace 1.11, written by Peter Selinger 2001-2013
</metadata>
<g transform="translate(0.000000,992.000000) scale(0.100000,-0.100000)"
fill="#000000" stroke="none">
<path d="M7887 7674 c-1 -1 -56 -5 -122 -9 -166 -10 -183 -11 -240 -19 -103
-16 -145 -23 -225 -42 -36 -9 -75 -17 -87 -20 -12 -2 -66 -20 -120 -39 -54
-20 -102 -37 -108 -38 -21 -6 -195 -97 -231 -122 -112 -74 -200 -154 -282
-255 -65 -80 -61 -75 -99 -135 -39 -61 -148 -295 -138 -295 2 0 -3 -16 -11
-35 -8 -19 -11 -35 -8 -35 4 0 2 -6 -3 -12 -6 -7 -14 -31 -18 -53 -5 -22 -9
-44 -11 -50 -33 -137 -58 -325 -70 -540 -1 -33 -3 -860 -4 -1837 -2 -1971 -6
-1835 63 -1910 63 -69 60 -68 615 -66 494 3 497 3 539 25 47 25 88 86 97 143
3 19 6 206 6 415 1 372 2 381 24 426 29 62 49 80 110 101 46 16 90 17 441 15
l390 -2 50 -25 c41 -20 55 -35 77 -78 l27 -54 1 -371 c0 -205 2 -389 4 -409 8
-80 66 -156 136 -177 8 -3 233 -6 500 -8 348 -3 496 -1 525 7 55 16 101 53
128 103 l22 42 0 1855 c0 1020 -3 1889 -8 1930 -4 41 -10 98 -12 125 -3 28 -7
61 -9 75 -3 14 -7 45 -11 70 -3 25 -10 61 -15 80 -5 19 -11 46 -13 60 -11 58
-51 193 -77 255 -30 70 -84 181 -96 195 -7 8 -12 17 -11 20 2 6 -57 94 -91
135 -52 63 -119 132 -172 175 -30 25 -57 48 -60 51 -11 14 -170 107 -235 138
-73 35 -285 109 -333 116 -15 3 -58 11 -95 20 -37 8 -85 17 -105 20 -20 3 -48
7 -62 9 -14 3 -52 7 -85 10 -33 3 -94 8 -135 11 -68 6 -348 13 -353 9z m322
-1457 c218 -55 290 -123 326 -310 21 -110 22 -1082 0 -1152 -18 -62 -68 -112
-135 -134 -8 -3 -197 -5 -420 -5 l-405 -1 -40 25 c-48 29 -60 43 -85 95 -19
38 -20 64 -17 585 3 539 6 611 27 650 6 11 8 20 5 20 -3 0 4 19 16 43 42 82
143 153 244 172 22 4 51 9 65 12 13 2 26 6 28 7 5 6 366 -1 391 -7z"/>
<path d="M221 7527 c-72 -12 -133 -72 -147 -144 -6 -29 -10 -1054 -9 -2558 0
-2387 1 -2512 18 -2538 9 -15 14 -27 10 -27 -12 0 51 -60 82 -78 27 -15 80
-17 532 -20 448 -2 507 0 545 14 57 23 86 50 111 104 21 45 21 50 22 1602 0
856 3 1559 6 1563 13 13 57 14 66 2 6 -6 13 -23 16 -37 3 -14 15 -63 27 -110
11 -47 23 -96 26 -109 3 -13 36 -151 74 -305 38 -155 71 -292 74 -306 6 -26
71 -295 83 -340 3 -14 7 -29 8 -35 2 -5 7 -28 13 -50 6 -22 13 -51 16 -65 2
-14 9 -37 14 -51 6 -15 8 -29 6 -32 -3 -3 -1 -14 4 -24 6 -10 13 -33 16 -50 3
-18 9 -48 12 -65 3 -18 10 -41 16 -51 5 -10 7 -21 4 -24 -3 -4 -1 -12 6 -20 6
-7 9 -16 6 -18 -3 -3 3 -36 14 -73 11 -37 21 -76 23 -87 2 -11 6 -29 8 -40 3
-11 13 -49 22 -85 8 -36 18 -74 21 -85 3 -11 7 -31 10 -45 3 -14 10 -43 16
-65 6 -22 12 -47 13 -55 1 -8 5 -22 8 -30 4 -12 96 -388 103 -425 1 -5 18 -76
38 -157 20 -80 38 -154 40 -165 30 -149 67 -213 147 -255 43 -22 52 -23 365
-26 286 -2 326 0 369 15 86 33 135 97 160 212 3 11 7 30 10 42 2 11 7 29 10
39 3 10 7 27 9 37 2 10 27 110 54 223 42 174 62 255 67 280 1 3 4 14 8 25 3
11 8 31 11 45 2 14 9 45 16 70 7 25 14 53 16 62 2 10 6 27 9 38 3 11 7 29 10
41 2 11 7 29 10 40 4 10 8 31 10 47 2 15 4 27 5 27 3 0 41 155 75 305 2 8 4
16 5 18 3 2 2 1 15 57 10 47 12 54 14 58 2 1 4 12 7 24 2 12 26 113 53 225 91
373 123 503 126 518 2 8 4 15 6 15 1 0 3 9 5 20 3 24 6 36 33 145 12 47 24 96
27 110 4 20 36 152 59 240 5 22 26 113 30 130 1 8 8 35 15 60 7 25 13 50 15
55 10 46 20 65 35 70 26 8 50 -4 54 -29 3 -11 4 -706 3 -1543 -1 -838 1 -1523
5 -1523 4 0 5 -6 2 -14 -13 -35 66 -156 101 -156 8 0 15 -4 15 -9 0 -14 -15
-13 535 -17 494 -3 501 -3 545 18 25 12 55 33 68 47 52 59 50 -71 50 2621 0
2301 -1 2510 -17 2552 -20 59 -50 93 -98 114 -35 16 -114 17 -908 18 -866 0
-870 0 -910 -21 -82 -43 -129 -130 -159 -293 -2 -14 -18 -81 -36 -150 -17 -69
-33 -132 -35 -140 -2 -8 -24 -100 -50 -205 -26 -104 -48 -197 -50 -205 -2 -8
-17 -73 -35 -145 -18 -71 -33 -137 -35 -145 -2 -8 -20 -80 -40 -160 -20 -80
-38 -156 -41 -170 -3 -14 -14 -61 -25 -105 -12 -44 -22 -87 -24 -95 -2 -8 -13
-53 -24 -100 -12 -47 -23 -94 -25 -105 -3 -11 -19 -76 -36 -145 -18 -69 -36
-145 -42 -170 -13 -64 -16 -75 -18 -75 -1 0 -3 -8 -5 -18 -10 -51 -57 -62 -78
-19 -12 22 -65 229 -73 282 -2 8 -16 67 -32 130 -24 95 -122 492 -137 557 -3
10 -9 38 -16 63 -6 25 -13 54 -15 65 -2 11 -11 47 -19 80 -9 33 -17 69 -20 80
-4 19 -120 491 -211 865 -20 80 -41 162 -47 183 -16 51 -69 112 -121 139 l-41
22 -840 1 c-462 0 -864 -4 -894 -8z"/>
</g>
</svg>
